<svg width="488" height="53" viewBox="0 0 488 53" fill="none" xmlns="http://www.w3.org/2000/svg">
<mask id="mask0_17_1339" style="mask-type:luminance" maskUnits="userSpaceOnUse" x="0" y="0" width="485" height="17">
<path d="M0 0H484.486V16.9854H0V0Z" fill="white"/>
</mask>
<g mask="url(#mask0_17_1339)">
<mask id="mask1_17_1339" style="mask-type:luminance" maskUnits="userSpaceOnUse" x="0" y="0" width="485" height="17">
<path d="M484.472 0V12.739C444.104 12.739 444.104 16.9854 403.729 16.9854C363.341 16.9854 363.341 12.739 322.973 12.739C282.598 12.739 282.598 16.9854 242.223 16.9854C201.848 16.9854 201.848 12.739 161.48 12.739C121.105 12.739 121.105 16.9854 80.7432 16.9854C40.3682 16.9854 40.3682 12.739 0 12.739V0C40.3682 0 40.3682 4.23835 80.7432 4.23835C121.105 4.23835 121.105 0 161.48 0C201.848 0 201.848 4.23835 242.223 4.23835C282.598 4.23835 282.598 0 322.973 0C363.341 0 363.341 4.23835 403.729 4.23835C444.104 4.23835 444.104 0 484.472 0Z" fill="white"/>
</mask>
<g mask="url(#mask1_17_1339)">
<mask id="mask2_17_1339" style="mask-type:luminance" maskUnits="userSpaceOnUse" x="-1" y="-2" width="487" height="21">
<path d="M485.545 -1.99902H-0.429688V18.473H485.545V-1.99902Z" fill="white"/>
</mask>
<g mask="url(#mask2_17_1339)">
<mask id="mask3_17_1339" style="mask-type:luminance" maskUnits="userSpaceOnUse" x="0" y="0" width="485" height="17">
<path d="M0 0H484.486V16.9854H0V0Z" fill="white"/>
</mask>
<g mask="url(#mask3_17_1339)">
<mask id="mask4_17_1339" style="mask-type:luminance" maskUnits="userSpaceOnUse" x="0" y="0" width="485" height="17">
<path d="M484.472 0V12.739C444.104 12.739 444.104 16.9854 403.729 16.9854C363.341 16.9854 363.341 12.739 322.973 12.739C282.598 12.739 282.598 16.9854 242.223 16.9854C201.848 16.9854 201.848 12.739 161.48 12.739C121.105 12.739 121.105 16.9854 80.7432 16.9854C40.3682 16.9854 40.3682 12.739 0 12.739V0C40.3682 0 40.3682 4.23835 80.7432 4.23835C121.105 4.23835 121.105 0 161.48 0C201.848 0 201.848 4.23835 242.223 4.23835C282.598 4.23835 282.598 0 322.973 0C363.341 0 363.341 4.23835 403.729 4.23835C444.104 4.23835 444.104 0 484.472 0Z" fill="white"/>
</mask>
<g mask="url(#mask4_17_1339)">
<path d="M0 0H484.486V16.9854H0V0Z" fill="#10BADC"/>
</g>
</g>
</g>
</g>
</g>
<mask id="mask5_17_1339" style="mask-type:luminance" maskUnits="userSpaceOnUse" x="2" y="35" width="486" height="18">
<path d="M2.87695 35.8496H487.363V52.835H2.87695V35.8496Z" fill="white"/>
</mask>
<g mask="url(#mask5_17_1339)">
<mask id="mask6_17_1339" style="mask-type:luminance" maskUnits="userSpaceOnUse" x="2" y="35" width="486" height="18">
<path d="M487.349 35.8496V48.5966C446.974 48.5966 446.974 52.835 406.606 52.835C366.218 52.835 366.218 48.5966 325.843 48.5966C285.475 48.5966 285.475 52.835 245.1 52.835C204.725 52.835 204.725 48.5966 164.35 48.5966C123.982 48.5966 123.982 52.835 83.6201 52.835C43.2452 52.835 43.2452 48.5966 2.87695 48.5966V35.8496C43.2452 35.8496 43.2452 40.096 83.6201 40.096C123.982 40.096 123.982 35.8496 164.35 35.8496C204.725 35.8496 204.725 40.096 245.1 40.096C285.475 40.096 285.475 35.8496 325.843 35.8496C366.218 35.8496 366.218 40.096 406.606 40.096C446.974 40.096 446.974 35.8496 487.349 35.8496Z" fill="white"/>
</mask>
<g mask="url(#mask6_17_1339)">
<mask id="mask7_17_1339" style="mask-type:luminance" maskUnits="userSpaceOnUse" x="1" y="34" width="488" height="20">
<path d="M488.979 34.8496H1.28711V53.2744H488.979V34.8496Z" fill="white"/>
</mask>
<g mask="url(#mask7_17_1339)">
<mask id="mask8_17_1339" style="mask-type:luminance" maskUnits="userSpaceOnUse" x="2" y="35" width="486" height="18">
<path d="M2.87695 35.8496H487.363V52.835H2.87695V35.8496Z" fill="white"/>
</mask>
<g mask="url(#mask8_17_1339)">
<mask id="mask9_17_1339" style="mask-type:luminance" maskUnits="userSpaceOnUse" x="2" y="35" width="486" height="18">
<path d="M487.349 35.8496V48.5966C446.974 48.5966 446.974 52.835 406.606 52.835C366.218 52.835 366.218 48.5966 325.843 48.5966C285.475 48.5966 285.475 52.835 245.1 52.835C204.725 52.835 204.725 48.5966 164.35 48.5966C123.982 48.5966 123.982 52.835 83.6201 52.835C43.2452 52.835 43.2452 48.5966 2.87695 48.5966V35.8496C43.2452 35.8496 43.2452 40.096 83.6201 40.096C123.982 40.096 123.982 35.8496 164.35 35.8496C204.725 35.8496 204.725 40.096 245.1 40.096C285.475 40.096 285.475 35.8496 325.843 35.8496C366.218 35.8496 366.218 40.096 406.606 40.096C446.974 40.096 446.974 35.8496 487.349 35.8496Z" fill="white"/>
</mask>
<g mask="url(#mask9_17_1339)">
<path d="M2.87695 35.8496H487.363V52.835H2.87695V35.8496Z" fill="#10BADC"/>
</g>
</g>
</g>
</g>
</g>
</svg>
