<svg width="1440" height="1147" viewBox="0 0 1440 1147" fill="none" xmlns="http://www.w3.org/2000/svg">
<path d="M940.59 12.6858C945.572 6.35278 953.983 3.57076 961.794 5.54776C1439.1 126.353 1606.22 276.086 1580.5 772.777C1579.94 783.557 1571.01 792.233 1560.22 792.271L366.19 796.577C349.072 796.639 339.447 776.911 350.03 763.457L940.59 12.6858Z" fill="#1F8AC4"/>
<path d="M172.024 246.227C195.116 207.662 250.996 207.662 274.088 246.227L514.199 647.227C537.938 686.874 509.377 737.266 463.166 737.266H-17.0544C-63.2651 737.266 -91.8264 686.874 -68.0868 647.227L172.024 246.227Z" fill="#F7B18A" fill-opacity="0.7"/>
<rect x="392" y="426" width="614.001" height="286.534" rx="19.1875" fill="#FFCBCD" fill-opacity="0.8"/>
<mask id="mask0_24_86" style="mask-type:luminance" maskUnits="userSpaceOnUse" x="68" y="87" width="486" height="18">
<path d="M68.958 87.5029H553.444V104.488H68.958V87.5029Z" fill="white"/>
</mask>
<g mask="url(#mask0_24_86)">
<mask id="mask1_24_86" style="mask-type:luminance" maskUnits="userSpaceOnUse" x="68" y="87" width="486" height="18">
<path d="M553.43 87.5029V100.242C513.062 100.242 513.062 104.488 472.687 104.488C432.299 104.488 432.299 100.242 391.931 100.242C351.556 100.242 351.556 104.488 311.181 104.488C270.806 104.488 270.806 100.242 230.438 100.242C190.063 100.242 190.063 104.488 149.701 104.488C109.326 104.488 109.326 100.242 68.958 100.242V87.5029C109.326 87.5029 109.326 91.7413 149.701 91.7413C190.063 91.7413 190.063 87.5029 230.438 87.5029C270.806 87.5029 270.806 91.7413 311.181 91.7413C351.556 91.7413 351.556 87.5029 391.931 87.5029C432.299 87.5029 432.299 91.7413 472.687 91.7413C513.062 91.7413 513.062 87.5029 553.43 87.5029Z" fill="white"/>
</mask>
<g mask="url(#mask1_24_86)">
<mask id="mask2_24_86" style="mask-type:luminance" maskUnits="userSpaceOnUse" x="68" y="85" width="487" height="21">
<path d="M554.503 85.5039H68.5283V105.976H554.503V85.5039Z" fill="white"/>
</mask>
<g mask="url(#mask2_24_86)">
<mask id="mask3_24_86" style="mask-type:luminance" maskUnits="userSpaceOnUse" x="68" y="87" width="486" height="18">
<path d="M68.958 87.5029H553.444V104.488H68.958V87.5029Z" fill="white"/>
</mask>
<g mask="url(#mask3_24_86)">
<mask id="mask4_24_86" style="mask-type:luminance" maskUnits="userSpaceOnUse" x="68" y="87" width="486" height="18">
<path d="M553.43 87.5029V100.242C513.062 100.242 513.062 104.488 472.687 104.488C432.299 104.488 432.299 100.242 391.931 100.242C351.556 100.242 351.556 104.488 311.181 104.488C270.806 104.488 270.806 100.242 230.438 100.242C190.063 100.242 190.063 104.488 149.701 104.488C109.326 104.488 109.326 100.242 68.958 100.242V87.5029C109.326 87.5029 109.326 91.7413 149.701 91.7413C190.063 91.7413 190.063 87.5029 230.438 87.5029C270.806 87.5029 270.806 91.7413 311.181 91.7413C351.556 91.7413 351.556 87.5029 391.931 87.5029C432.299 87.5029 432.299 91.7413 472.687 91.7413C513.062 91.7413 513.062 87.5029 553.43 87.5029Z" fill="white"/>
</mask>
<g mask="url(#mask4_24_86)">
<path d="M68.958 87.5029H553.444V104.488H68.958V87.5029Z" fill="#0078D0"/>
</g>
</g>
</g>
</g>
</g>
<mask id="mask5_24_86" style="mask-type:luminance" maskUnits="userSpaceOnUse" x="71" y="123" width="486" height="18">
<path d="M71.835 123.353H556.321V140.338H71.835V123.353Z" fill="white"/>
</mask>
<g mask="url(#mask5_24_86)">
<mask id="mask6_24_86" style="mask-type:luminance" maskUnits="userSpaceOnUse" x="71" y="123" width="486" height="18">
<path d="M556.307 123.353V136.1C515.932 136.1 515.932 140.338 475.564 140.338C435.176 140.338 435.176 136.1 394.801 136.1C354.433 136.1 354.433 140.338 314.058 140.338C273.683 140.338 273.683 136.1 233.308 136.1C192.94 136.1 192.94 140.338 152.578 140.338C112.203 140.338 112.203 136.1 71.835 136.1V123.353C112.203 123.353 112.203 127.599 152.578 127.599C192.94 127.599 192.94 123.353 233.308 123.353C273.683 123.353 273.683 127.599 314.058 127.599C354.433 127.599 354.433 123.353 394.801 123.353C435.176 123.353 435.176 127.599 475.564 127.599C515.932 127.599 515.932 123.353 556.307 123.353Z" fill="white"/>
</mask>
<g mask="url(#mask6_24_86)">
<mask id="mask7_24_86" style="mask-type:luminance" maskUnits="userSpaceOnUse" x="70" y="122" width="488" height="19">
<path d="M557.937 122.353H70.2451V140.777H557.937V122.353Z" fill="white"/>
</mask>
<g mask="url(#mask7_24_86)">
<mask id="mask8_24_86" style="mask-type:luminance" maskUnits="userSpaceOnUse" x="71" y="123" width="486" height="18">
<path d="M71.835 123.353H556.321V140.338H71.835V123.353Z" fill="white"/>
</mask>
<g mask="url(#mask8_24_86)">
<mask id="mask9_24_86" style="mask-type:luminance" maskUnits="userSpaceOnUse" x="71" y="123" width="486" height="18">
<path d="M556.307 123.353V136.1C515.932 136.1 515.932 140.338 475.564 140.338C435.176 140.338 435.176 136.1 394.801 136.1C354.433 136.1 354.433 140.338 314.058 140.338C273.683 140.338 273.683 136.1 233.308 136.1C192.94 136.1 192.94 140.338 152.578 140.338C112.203 140.338 112.203 136.1 71.835 136.1V123.353C112.203 123.353 112.203 127.599 152.578 127.599C192.94 127.599 192.94 123.353 233.308 123.353C273.683 123.353 273.683 127.599 314.058 127.599C354.433 127.599 354.433 123.353 394.801 123.353C435.176 123.353 435.176 127.599 475.564 127.599C515.932 127.599 515.932 123.353 556.307 123.353Z" fill="white"/>
</mask>
<g mask="url(#mask9_24_86)">
<path d="M71.835 123.353H556.321V140.338H71.835V123.353Z" fill="#0078D0"/>
</g>
</g>
</g>
</g>
</g>
<rect x="8" y="715" width="1436.51" height="310.838" rx="10.8729" fill="#00AD9C"/>
<mask id="mask10_24_86" style="mask-type:luminance" maskUnits="userSpaceOnUse" x="1057" y="101" width="88" height="65">
<path d="M1144.75 116.326L1066.63 165.276L1057.61 150.882L1135.73 101.933L1144.75 116.326Z" fill="white"/>
</mask>
<g mask="url(#mask10_24_86)">
<mask id="mask11_24_86" style="mask-type:luminance" maskUnits="userSpaceOnUse" x="1059" y="105" width="86" height="61">
<path d="M1066.63 165.274L1059.86 154.479C1066.37 150.401 1064.12 146.802 1070.63 142.723C1077.14 138.642 1079.4 142.241 1085.91 138.162C1092.42 134.083 1090.16 130.485 1096.67 126.405C1103.18 122.326 1105.44 125.924 1111.95 121.846C1118.46 117.767 1116.2 114.168 1122.71 110.09C1129.22 106.011 1131.48 109.61 1137.99 105.531L1144.75 116.326C1138.24 120.405 1135.99 116.813 1129.48 120.892C1122.97 124.97 1125.22 128.562 1118.71 132.641C1112.2 136.72 1109.95 133.128 1103.44 137.207C1096.93 141.286 1099.18 144.878 1092.67 148.957C1086.16 153.036 1083.91 149.444 1077.4 153.525C1070.89 157.604 1073.14 161.196 1066.63 165.274Z" fill="white"/>
</mask>
<g mask="url(#mask11_24_86)">
<mask id="mask12_24_86" style="mask-type:luminance" maskUnits="userSpaceOnUse" x="1056" y="100" width="90" height="68">
<path d="M1067.52 167.076L1145.88 117.977L1135.01 100.628L1056.65 149.728L1067.52 167.076Z" fill="white"/>
</mask>
<g mask="url(#mask12_24_86)">
<mask id="mask13_24_86" style="mask-type:luminance" maskUnits="userSpaceOnUse" x="1057" y="101" width="88" height="65">
<path d="M1144.75 116.326L1066.63 165.276L1057.61 150.882L1135.73 101.933L1144.75 116.326Z" fill="white"/>
</mask>
<g mask="url(#mask13_24_86)">
<mask id="mask14_24_86" style="mask-type:luminance" maskUnits="userSpaceOnUse" x="1059" y="105" width="86" height="61">
<path d="M1066.63 165.274L1059.86 154.479C1066.37 150.401 1064.12 146.802 1070.63 142.723C1077.14 138.642 1079.4 142.241 1085.91 138.162C1092.42 134.083 1090.16 130.485 1096.67 126.405C1103.18 122.326 1105.44 125.924 1111.95 121.846C1118.46 117.767 1116.2 114.168 1122.71 110.09C1129.22 106.011 1131.48 109.61 1137.99 105.531L1144.75 116.326C1138.24 120.405 1135.99 116.813 1129.48 120.892C1122.97 124.97 1125.22 128.562 1118.71 132.641C1112.2 136.72 1109.95 133.128 1103.44 137.207C1096.93 141.286 1099.18 144.878 1092.67 148.957C1086.16 153.036 1083.91 149.444 1077.4 153.525C1070.89 157.604 1073.14 161.196 1066.63 165.274Z" fill="white"/>
</mask>
<g mask="url(#mask14_24_86)">
<path d="M1144.75 116.326L1066.63 165.276L1057.61 150.882L1135.73 101.933L1144.75 116.326Z" fill="#CCE6E3"/>
</g>
</g>
</g>
</g>
</g>
<mask id="mask15_24_86" style="mask-type:luminance" maskUnits="userSpaceOnUse" x="1038" y="71" width="88" height="65">
<path d="M1125.25 86.2373L1047.13 135.187L1038.11 120.793L1116.23 71.8438L1125.25 86.2373Z" fill="white"/>
</mask>
<g mask="url(#mask15_24_86)">
<mask id="mask16_24_86" style="mask-type:luminance" maskUnits="userSpaceOnUse" x="1040" y="75" width="86" height="61">
<path d="M1047.13 135.185L1040.36 124.383C1046.87 120.304 1044.62 116.713 1051.13 112.634C1057.64 108.553 1059.89 112.145 1066.41 108.066C1072.91 103.987 1070.66 100.396 1077.17 96.3165C1083.69 92.2373 1085.94 95.8288 1092.45 91.7496C1098.96 87.6711 1096.71 84.0795 1103.21 80.0016C1109.72 75.9224 1111.97 79.514 1118.48 75.4354L1125.25 86.2373C1118.74 90.3159 1116.49 86.7175 1109.98 90.7967C1103.47 94.8746 1105.72 98.473 1099.21 102.552C1092.7 106.631 1090.45 103.032 1083.94 107.112C1077.43 111.191 1079.68 114.789 1073.17 118.868C1066.66 122.947 1064.41 119.349 1057.9 123.429C1051.39 127.508 1053.64 131.106 1047.13 135.185Z" fill="white"/>
</mask>
<g mask="url(#mask16_24_86)">
<mask id="mask17_24_86" style="mask-type:luminance" maskUnits="userSpaceOnUse" x="1037" y="71" width="90" height="66">
<path d="M1047.4 136.197L1126.04 86.9238L1116.26 71.3106L1037.62 120.584L1047.4 136.197Z" fill="white"/>
</mask>
<g mask="url(#mask17_24_86)">
<mask id="mask18_24_86" style="mask-type:luminance" maskUnits="userSpaceOnUse" x="1038" y="71" width="88" height="65">
<path d="M1125.25 86.2373L1047.13 135.187L1038.11 120.793L1116.23 71.8438L1125.25 86.2373Z" fill="white"/>
</mask>
<g mask="url(#mask18_24_86)">
<mask id="mask19_24_86" style="mask-type:luminance" maskUnits="userSpaceOnUse" x="1040" y="75" width="86" height="61">
<path d="M1047.13 135.185L1040.36 124.383C1046.87 120.304 1044.62 116.713 1051.13 112.634C1057.64 108.553 1059.89 112.145 1066.41 108.066C1072.91 103.987 1070.66 100.396 1077.17 96.3165C1083.69 92.2373 1085.94 95.8288 1092.45 91.7496C1098.96 87.6711 1096.71 84.0795 1103.21 80.0016C1109.72 75.9224 1111.97 79.514 1118.48 75.4354L1125.25 86.2373C1118.74 90.3159 1116.49 86.7175 1109.98 90.7967C1103.47 94.8746 1105.72 98.473 1099.21 102.552C1092.7 106.631 1090.45 103.032 1083.94 107.112C1077.43 111.191 1079.68 114.789 1073.17 118.868C1066.66 122.947 1064.41 119.349 1057.9 123.429C1051.39 127.508 1053.64 131.106 1047.13 135.185Z" fill="white"/>
</mask>
<g mask="url(#mask19_24_86)">
<path d="M1125.25 86.2373L1047.13 135.187L1038.11 120.793L1116.23 71.8438L1125.25 86.2373Z" fill="#CCE6E3"/>
</g>
</g>
</g>
</g>
</g>
<path d="M225.145 569C144.431 569 79 634.431 79 715.145H366.174C366.174 634.431 305.859 569 225.145 569Z" fill="#F1AC42" fill-opacity="0.78"/>
<path opacity="0.15" d="M452.443 877.175C452.408 904.761 455.047 924.513 460.361 936.432C465.989 948.038 475.072 953.849 487.611 953.865C500.15 953.881 517.865 950.925 540.756 944.998L552.897 1011.31C528.121 1020.37 503.194 1024.89 478.117 1024.85C440.5 1024.81 413.087 1012.39 395.877 987.603C378.982 962.503 370.565 925.346 370.628 876.131C370.691 826.602 379.673 788.84 397.574 762.844C415.476 736.535 444.645 723.407 485.084 723.458C508.907 723.488 531.628 728.533 553.245 738.592L540.456 811.458C516.016 803.277 498.937 799.18 489.219 799.167C475.426 799.15 465.857 805.25 460.513 817.469C455.169 829.374 452.479 849.276 452.443 877.175ZM782.422 1020.54L703.897 1020.44L695.022 974.348L639.537 974.277L630.544 1020.35L555.781 1020.25L609.757 728.319L729.19 728.471L782.422 1020.54ZM686.158 919.322L669.833 814.914L666.542 814.91L649.951 919.276L686.158 919.322ZM1016.61 1020.84L938.083 1020.74L929.208 974.646L873.723 974.576L864.731 1020.64L789.967 1020.55L843.943 728.617L963.377 728.77L1016.61 1020.84ZM920.344 919.62L904.02 815.213L900.728 815.209L884.138 919.574L920.344 919.62ZM1071.81 890.19C1061.79 883.594 1053.18 874.022 1045.99 861.474C1039.11 848.927 1035.68 832.622 1035.7 812.559C1035.73 792.497 1041.24 774.636 1052.23 758.976C1063.54 743.003 1079.38 732.522 1099.76 727.533L1099.82 683.333L1161.89 683.412L1161.83 725.731C1177.5 727.005 1195.05 729.378 1214.49 732.851L1204.99 808.073C1173.96 800.823 1152.65 797.191 1141.05 797.176C1126.32 797.158 1118.94 803.104 1118.93 815.016C1118.92 819.718 1122.36 824.268 1129.26 828.666C1136.46 833.063 1145.07 837.776 1155.1 842.805C1165.12 847.52 1175.15 853.332 1185.17 860.241C1195.19 866.837 1203.64 876.408 1210.53 888.956C1217.72 901.504 1221.3 917.809 1221.28 937.872C1221.25 957.621 1216.06 975.325 1205.69 990.986C1195.64 1006.33 1180.9 1016.5 1161.45 1021.49L1161.41 1058.17L1099.34 1058.09L1099.38 1024.24C1079.32 1022.02 1060.68 1017.92 1043.44 1011.94L1048.71 941.884C1082.23 951.644 1105.58 956.533 1118.75 956.549C1131.91 956.566 1138.5 950.775 1138.52 939.177C1138.53 933.221 1134.93 927.731 1127.73 922.706C1120.84 917.681 1112.38 912.655 1102.35 907.627C1092.33 902.598 1082.15 896.786 1071.81 890.19ZM1472.73 1021.42L1392.79 1021.32L1392.93 910.818L1337.92 910.748L1337.78 1021.25L1256.9 1021.14L1257.27 729.144L1338.15 729.247L1338 843.978L1393.02 844.048L1393.16 729.317L1473.1 729.419L1472.73 1021.42Z" fill="#EDEDED"/>
</svg>
