<svg width="1440" height="1354" viewBox="0 0 1440 1354" fill="none" xmlns="http://www.w3.org/2000/svg">
<path d="M188.919 163.459L115.318 163.365L115.265 204.849L174.592 204.924L174.517 263.804L115.19 263.729L115.052 372.122L38.7758 372.025L39.1287 95.0204L193.466 95.217L188.919 163.459ZM351.361 372.423L210.405 372.243L210.758 95.239L287.034 95.3362L286.761 310.338L355.9 310.426L351.361 372.423ZM388.835 124.46C406.112 102.179 434.228 91.0631 473.184 91.1127C512.14 91.1624 539.93 102.201 556.555 124.228C573.478 146.255 581.907 182.099 581.844 231.761C581.781 281.125 573.11 317.691 555.832 341.459C538.554 365.227 510.586 377.086 471.927 377.037C433.269 376.988 405.479 365.206 388.559 341.692C371.638 318.178 363.21 281.739 363.272 232.375C363.336 182.713 371.857 146.741 388.835 124.46ZM505.121 231.663C505.156 204.305 502.949 185.865 498.501 176.343C494.35 166.524 485.584 161.606 472.202 161.589C459.117 161.573 450.636 166.469 446.758 176.277C442.88 185.788 440.923 204.074 440.889 231.135L440.875 241.841C440.839 270.686 442.896 289.721 447.047 298.945C451.497 307.871 460.263 312.343 473.348 312.36C486.73 312.377 495.359 308.076 499.236 299.457C503.113 290.838 505.069 272.998 505.103 245.937L505.121 231.663ZM887.608 96.1013L862.275 373.074L770.387 372.957L746.456 250.259L742.887 250.255L722.658 372.896L630.323 372.778L601.682 95.7371L674.836 95.8303L686.247 242.599L690.708 242.605L709.629 95.8746L784.121 95.9695L804.453 242.75L808.914 242.756L817.13 96.0115L887.608 96.1013Z" fill="#ECE7E3"/>
<path d="M-965.355 237.509C-965.388 263.678 -962.884 282.416 -957.844 293.723C-952.505 304.733 -943.888 310.245 -931.993 310.26C-920.098 310.275 -903.293 307.472 -881.577 301.849L-870.06 364.759C-893.563 373.353 -917.21 377.634 -941 377.604C-976.685 377.559 -1002.69 365.779 -1019.02 342.266C-1035.04 318.455 -1043.03 283.206 -1042.97 236.518C-1042.91 189.533 -1034.39 153.71 -1017.41 129.05C-1000.42 104.092 -972.752 91.6376 -934.391 91.6865C-911.79 91.7153 -890.237 96.5007 -869.73 106.043L-881.862 175.167C-905.047 167.406 -921.249 163.519 -930.468 163.508C-943.552 163.491 -952.63 169.278 -957.7 180.869C-962.77 192.163 -965.321 211.043 -965.355 237.509ZM-652.323 373.511L-726.815 373.416L-735.235 329.691L-787.87 329.624L-796.401 373.328L-867.324 373.237L-816.121 96.2978L-702.821 96.4421L-652.323 373.511ZM-743.643 277.491L-759.129 178.446L-762.252 178.442L-777.99 277.448L-743.643 277.491ZM-430.163 373.794L-504.655 373.699L-513.075 329.975L-565.71 329.907L-574.241 373.611L-645.165 373.52L-593.961 96.5808L-480.661 96.7252L-430.163 373.794ZM-521.484 277.774L-536.97 178.729L-540.092 178.725L-555.83 277.731L-521.484 277.774ZM-377.795 249.856C-387.303 243.599 -395.469 234.518 -402.294 222.615C-408.821 210.711 -412.072 195.244 -412.048 176.212C-412.024 157.18 -406.798 140.236 -396.371 125.381C-385.646 110.228 -370.616 100.285 -351.281 95.5518L-351.227 53.622L-292.347 53.697L-292.398 93.8426C-277.531 95.051 -260.881 97.3025 -242.448 100.597L-251.46 171.956C-280.891 165.079 -301.109 161.633 -312.111 161.619C-326.088 161.601 -333.083 167.242 -333.098 178.543C-333.104 183.003 -329.838 187.319 -323.301 191.491C-316.467 195.663 -308.295 200.134 -298.785 204.904C-289.274 209.377 -279.765 214.89 -270.258 221.445C-260.75 227.702 -252.732 236.782 -246.205 248.685C-239.381 260.589 -235.981 276.057 -236.005 295.089C-236.029 313.823 -240.957 330.619 -250.789 345.475C-260.324 360.034 -274.312 369.681 -292.756 374.415L-292.8 409.208L-351.68 409.133L-351.639 377.017C-370.669 374.911 -388.357 371.022 -404.706 365.352L-399.715 298.895C-367.907 308.154 -345.759 312.791 -333.269 312.807C-320.779 312.823 -314.527 307.33 -314.513 296.327C-314.506 290.677 -317.919 285.468 -324.753 280.702C-331.289 275.935 -339.312 271.167 -348.822 266.397C-358.332 261.627 -367.99 256.113 -377.795 249.856ZM2.53064 374.346L-73.2998 374.249L-73.1663 269.424L-125.356 269.358L-125.489 374.182L-202.212 374.085L-201.859 97.0803L-125.136 97.1781L-125.275 206.017L-73.0856 206.084L-72.9469 97.2446L2.88354 97.3412L2.53064 374.346Z" fill="#ECE7E3"/>
<rect x="-8" y="1027" width="1520.17" height="319.465" rx="11.5062" fill="#00AD9C"/>
<path opacity="0.15" d="M494.645 1204.51C494.612 1230.68 497.116 1249.42 502.156 1260.72C507.495 1271.73 516.112 1277.24 528.007 1277.26C539.902 1277.28 556.707 1274.47 578.423 1268.85L589.94 1331.76C566.437 1340.35 542.79 1344.63 519 1344.6C483.315 1344.56 457.31 1332.78 440.984 1309.27C424.956 1285.46 416.972 1250.21 417.031 1203.52C417.091 1156.53 425.612 1120.71 442.594 1096.05C459.576 1071.09 487.248 1058.64 525.609 1058.69C548.21 1058.72 569.763 1063.5 590.27 1073.04L578.138 1142.17C554.953 1134.41 538.751 1130.52 529.532 1130.51C516.448 1130.49 507.37 1136.28 502.3 1147.87C497.23 1159.16 494.679 1178.04 494.645 1204.51ZM807.677 1340.51L733.185 1340.42L724.765 1296.69L672.13 1296.62L663.599 1340.33L592.676 1340.24L643.879 1063.3L757.179 1063.44L807.677 1340.51ZM716.357 1244.49L700.871 1145.45L697.748 1145.44L682.01 1244.45L716.357 1244.49ZM1029.84 1340.79L955.345 1340.7L946.925 1296.97L894.29 1296.91L885.759 1340.61L814.835 1340.52L866.039 1063.58L979.339 1063.73L1029.84 1340.79ZM938.516 1244.77L923.03 1145.73L919.908 1145.72L904.17 1244.73L938.516 1244.77ZM1082.21 1216.86C1072.7 1210.6 1064.53 1201.52 1057.71 1189.61C1051.18 1177.71 1047.93 1162.24 1047.95 1143.21C1047.98 1124.18 1053.2 1107.24 1063.63 1092.38C1074.35 1077.23 1089.38 1067.29 1108.72 1062.55L1108.77 1020.62L1167.65 1020.7L1167.6 1060.84C1182.47 1062.05 1199.12 1064.3 1217.55 1067.6L1208.54 1138.96C1179.11 1132.08 1158.89 1128.63 1147.89 1128.62C1133.91 1128.6 1126.92 1134.24 1126.9 1145.54C1126.9 1150 1130.16 1154.32 1136.7 1158.49C1143.53 1162.66 1151.71 1167.13 1161.22 1171.9C1170.73 1176.38 1180.23 1181.89 1189.74 1188.44C1199.25 1194.7 1207.27 1203.78 1213.79 1215.69C1220.62 1227.59 1224.02 1243.06 1224 1262.09C1223.97 1280.82 1219.04 1297.62 1209.21 1312.47C1199.68 1327.03 1185.69 1336.68 1167.24 1341.42L1167.2 1376.21L1108.32 1376.13L1108.36 1344.02C1089.33 1341.91 1071.64 1338.02 1055.29 1332.35L1060.29 1265.89C1092.09 1275.15 1114.24 1279.79 1126.73 1279.81C1139.22 1279.82 1145.47 1274.33 1145.49 1263.33C1145.49 1257.68 1142.08 1252.47 1135.25 1247.7C1128.71 1242.94 1120.69 1238.17 1111.18 1233.4C1101.67 1228.63 1092.01 1223.11 1082.21 1216.86ZM1462.53 1341.35L1386.7 1341.25L1386.83 1236.42L1334.64 1236.36L1334.51 1341.18L1257.79 1341.08L1258.14 1064.08L1334.86 1064.18L1334.73 1173.02L1386.91 1173.08L1387.05 1064.24L1462.88 1064.34L1462.53 1341.35Z" fill="#EDEDED"/>
<path d="M851.674 202.424C856.946 195.722 865.847 192.778 874.113 194.87C1379.22 322.711 1556.07 481.164 1528.85 1006.78C1528.26 1018.19 1518.81 1027.37 1507.39 1027.41L243.821 1031.97C225.707 1032.03 215.521 1011.16 226.72 996.919L851.674 202.424Z" fill="#1F8AC4"/>
<path d="M243.167 208.213C267.603 167.395 326.745 167.395 351.181 208.214L784.309 931.71C809.426 973.665 779.201 1026.99 730.302 1026.99H-135.954C-184.853 1026.99 -215.078 973.665 -189.961 931.709L243.167 208.213Z" fill="#F7B18A"/>
<rect x="466" y="739" width="926" height="303" rx="20.305" fill="#FFCBCD" fill-opacity="0.83"/>
<path d="M408.746 835C264.74 835 148 927.727 148 1042.11H660.363C660.363 927.727 552.752 835 408.746 835Z" fill="#D1A585"/>
<mask id="mask0_24_87" style="mask-type:luminance" maskUnits="userSpaceOnUse" x="16" y="337" width="513" height="18">
<path d="M16 337H528.702V354.846H16V337Z" fill="white"/>
</mask>
<g mask="url(#mask0_24_87)">
<mask id="mask1_24_87" style="mask-type:luminance" maskUnits="userSpaceOnUse" x="16" y="337" width="513" height="18">
<path d="M528.687 337V350.385C485.968 350.385 485.968 354.846 443.242 354.846C400.501 354.846 400.501 350.385 357.782 350.385C315.056 350.385 315.056 354.846 272.33 354.846C229.603 354.846 229.603 350.385 186.884 350.385C144.158 350.385 144.158 354.846 101.446 354.846C58.7192 354.846 58.7192 350.385 16 350.385V337C58.7192 337 58.7192 341.453 101.446 341.453C144.158 341.453 144.158 337 186.884 337C229.603 337 229.603 341.453 272.33 341.453C315.056 341.453 315.056 337 357.782 337C400.501 337 400.501 341.453 443.242 341.453C485.968 341.453 485.968 337 528.687 337Z" fill="white"/>
</mask>
<g mask="url(#mask1_24_87)">
<mask id="mask2_24_87" style="mask-type:luminance" maskUnits="userSpaceOnUse" x="15" y="334" width="515" height="23">
<path d="M529.823 334.899H15.5459V356.409H529.823V334.899Z" fill="white"/>
</mask>
<g mask="url(#mask2_24_87)">
<mask id="mask3_24_87" style="mask-type:luminance" maskUnits="userSpaceOnUse" x="16" y="337" width="513" height="18">
<path d="M16 337H528.702V354.846H16V337Z" fill="white"/>
</mask>
<g mask="url(#mask3_24_87)">
<mask id="mask4_24_87" style="mask-type:luminance" maskUnits="userSpaceOnUse" x="16" y="337" width="513" height="18">
<path d="M528.687 337V350.385C485.968 350.385 485.968 354.846 443.242 354.846C400.501 354.846 400.501 350.385 357.782 350.385C315.056 350.385 315.056 354.846 272.33 354.846C229.603 354.846 229.603 350.385 186.884 350.385C144.158 350.385 144.158 354.846 101.446 354.846C58.7192 354.846 58.7192 350.385 16 350.385V337C58.7192 337 58.7192 341.453 101.446 341.453C144.158 341.453 144.158 337 186.884 337C229.603 337 229.603 341.453 272.33 341.453C315.056 341.453 315.056 337 357.782 337C400.501 337 400.501 341.453 443.242 341.453C485.968 341.453 485.968 337 528.687 337Z" fill="white"/>
</mask>
<g mask="url(#mask4_24_87)">
<path d="M16 337H528.702V354.846H16V337Z" fill="#0078D0"/>
</g>
</g>
</g>
</g>
</g>
<mask id="mask5_24_87" style="mask-type:luminance" maskUnits="userSpaceOnUse" x="19" y="374" width="513" height="19">
<path d="M19.0449 374.667H531.747V392.513H19.0449V374.667Z" fill="white"/>
</mask>
<g mask="url(#mask5_24_87)">
<mask id="mask6_24_87" style="mask-type:luminance" maskUnits="userSpaceOnUse" x="19" y="374" width="513" height="19">
<path d="M531.732 374.667V388.06C489.006 388.06 489.006 392.513 446.287 392.513C403.546 392.513 403.546 388.06 360.82 388.06C318.101 388.06 318.101 392.513 275.374 392.513C232.648 392.513 232.648 388.06 189.922 388.06C147.203 388.06 147.203 392.513 104.49 392.513C61.7641 392.513 61.7641 388.06 19.0449 388.06V374.667C61.7641 374.667 61.7641 379.129 104.49 379.129C147.203 379.129 147.203 374.667 189.922 374.667C232.648 374.667 232.648 379.129 275.374 379.129C318.101 379.129 318.101 374.667 360.82 374.667C403.546 374.667 403.546 379.129 446.287 379.129C489.006 379.129 489.006 374.667 531.732 374.667Z" fill="white"/>
</mask>
<g mask="url(#mask6_24_87)">
<mask id="mask7_24_87" style="mask-type:luminance" maskUnits="userSpaceOnUse" x="17" y="373" width="517" height="20">
<path d="M533.458 373.617H17.3633V392.976H533.458V373.617Z" fill="white"/>
</mask>
<g mask="url(#mask7_24_87)">
<mask id="mask8_24_87" style="mask-type:luminance" maskUnits="userSpaceOnUse" x="19" y="374" width="513" height="19">
<path d="M19.0449 374.668H531.747V392.514H19.0449V374.668Z" fill="white"/>
</mask>
<g mask="url(#mask8_24_87)">
<mask id="mask9_24_87" style="mask-type:luminance" maskUnits="userSpaceOnUse" x="19" y="374" width="513" height="19">
<path d="M531.732 374.668V388.061C489.006 388.061 489.006 392.514 446.287 392.514C403.546 392.514 403.546 388.061 360.82 388.061C318.101 388.061 318.101 392.514 275.374 392.514C232.648 392.514 232.648 388.061 189.922 388.061C147.203 388.061 147.203 392.514 104.49 392.514C61.7641 392.514 61.7641 388.061 19.0449 388.061V374.668C61.7641 374.668 61.7641 379.13 104.49 379.13C147.203 379.13 147.203 374.668 189.922 374.668C232.648 374.668 232.648 379.13 275.374 379.13C318.101 379.13 318.101 374.668 360.82 374.668C403.546 374.668 403.546 379.13 446.287 379.13C489.006 379.13 489.006 374.668 531.732 374.668Z" fill="white"/>
</mask>
<g mask="url(#mask9_24_87)">
<path d="M19.0449 374.668H531.747V392.514H19.0449V374.668Z" fill="#0078D0"/>
</g>
</g>
</g>
</g>
</g>
<mask id="mask10_24_87" style="mask-type:luminance" maskUnits="userSpaceOnUse" x="961" y="347" width="100" height="44">
<path d="M966.098 390.285L1060.4 365.263L1055.79 347.889L961.488 372.912L966.098 390.285Z" fill="white"/>
</mask>
<g mask="url(#mask10_24_87)">
<mask id="mask11_24_87" style="mask-type:luminance" maskUnits="userSpaceOnUse" x="962" y="351" width="99" height="40">
<path d="M1060.39 365.263L1056.93 352.233C1049.08 354.318 1047.92 349.975 1040.07 352.06C1032.21 354.146 1033.36 358.489 1025.5 360.574C1017.64 362.66 1016.49 358.316 1008.63 360.402C1000.77 362.487 1001.93 366.83 994.069 368.915C986.21 371 985.058 366.657 977.202 368.742C969.344 370.827 970.496 375.17 962.639 377.255L966.097 390.285C973.954 388.2 972.803 383.865 980.662 381.78C988.518 379.695 989.668 384.03 997.526 381.945C1005.38 379.86 1004.23 375.525 1012.09 373.44C1019.95 371.354 1021.1 375.69 1028.96 373.604C1036.82 371.519 1035.67 367.184 1043.53 365.098C1051.38 363.013 1052.53 367.348 1060.39 365.263Z" fill="white"/>
</mask>
<g mask="url(#mask11_24_87)">
<mask id="mask12_24_87" style="mask-type:luminance" maskUnits="userSpaceOnUse" x="960" y="346" width="102" height="47">
<path d="M1061.14 367.253L966.556 392.353L961 371.413L1055.59 346.313L1061.14 367.253Z" fill="white"/>
</mask>
<g mask="url(#mask12_24_87)">
<mask id="mask13_24_87" style="mask-type:luminance" maskUnits="userSpaceOnUse" x="961" y="347" width="100" height="44">
<path d="M966.095 390.286L1060.39 365.264L1055.78 347.89L961.485 372.913L966.095 390.286Z" fill="white"/>
</mask>
<g mask="url(#mask13_24_87)">
<mask id="mask14_24_87" style="mask-type:luminance" maskUnits="userSpaceOnUse" x="962" y="351" width="99" height="40">
<path d="M1060.39 365.264L1056.93 352.234C1049.07 354.319 1047.92 349.976 1040.06 352.061C1032.2 354.147 1033.36 358.49 1025.5 360.575C1017.64 362.661 1016.49 358.317 1008.63 360.403C1000.77 362.488 1001.92 366.831 994.066 368.916C986.208 371.001 985.055 366.658 977.2 368.743C969.341 370.828 970.494 375.171 962.637 377.256L966.094 390.286C973.951 388.201 972.801 383.866 980.659 381.781C988.515 379.696 989.665 384.031 997.524 381.946C1005.38 379.861 1004.23 375.526 1012.09 373.441C1019.95 371.355 1021.1 375.691 1028.96 373.605C1036.81 371.52 1035.66 367.185 1043.52 365.099C1051.38 363.014 1052.53 367.349 1060.39 365.264Z" fill="white"/>
</mask>
<g mask="url(#mask14_24_87)">
<path d="M966.094 390.286L1060.39 365.264L1055.78 347.89L961.484 372.913L966.094 390.286Z" fill="#CCE6E3"/>
</g>
</g>
</g>
</g>
</g>
<mask id="mask15_24_87" style="mask-type:luminance" maskUnits="userSpaceOnUse" x="929" y="305" width="99" height="43">
<path d="M933.61 347.644L1027.91 322.621L1023.3 305.248L929 330.27L933.61 347.644Z" fill="white"/>
</mask>
<g mask="url(#mask15_24_87)">
<mask id="mask16_24_87" style="mask-type:luminance" maskUnits="userSpaceOnUse" x="930" y="308" width="98" height="40">
<path d="M1027.9 322.622L1024.44 309.583C1016.59 311.669 1015.44 307.334 1007.58 309.419C999.718 311.505 1000.87 315.84 993.01 317.925C985.153 320.01 984.003 315.675 976.144 317.76C968.286 319.845 969.436 324.18 961.578 326.266C953.721 328.351 952.57 324.015 944.715 326.1C936.856 328.185 938.007 332.52 930.15 334.605L933.609 347.644C941.466 345.559 940.314 341.215 948.172 339.13C956.028 337.045 957.181 341.389 965.038 339.304C972.896 337.219 971.743 332.875 979.602 330.79C987.46 328.705 988.613 333.048 996.47 330.963C1004.33 328.878 1003.18 324.534 1011.04 322.449C1018.89 320.364 1020.05 324.707 1027.9 322.622Z" fill="white"/>
</mask>
<g mask="url(#mask16_24_87)">
<mask id="mask17_24_87" style="mask-type:luminance" maskUnits="userSpaceOnUse" x="928" y="304" width="101" height="45">
<path d="M1028.49 323.56L933.57 348.748L928.569 329.902L1023.49 304.714L1028.49 323.56Z" fill="white"/>
</mask>
<g mask="url(#mask17_24_87)">
<mask id="mask18_24_87" style="mask-type:luminance" maskUnits="userSpaceOnUse" x="928" y="305" width="100" height="43">
<path d="M933.607 347.644L1027.9 322.621L1023.29 305.248L928.997 330.27L933.607 347.644Z" fill="white"/>
</mask>
<g mask="url(#mask18_24_87)">
<mask id="mask19_24_87" style="mask-type:luminance" maskUnits="userSpaceOnUse" x="930" y="308" width="98" height="40">
<path d="M1027.9 322.622L1024.44 309.583C1016.58 311.669 1015.43 307.334 1007.58 309.419C999.715 311.505 1000.87 315.84 993.007 317.925C985.15 320.01 983.999 315.675 976.141 317.76C968.282 319.845 969.433 324.18 961.574 326.266C953.717 328.351 952.567 324.015 944.711 326.1C936.853 328.185 938.003 332.52 930.146 334.605L933.606 347.644C941.463 345.559 940.31 341.215 948.169 339.13C956.025 337.045 957.177 341.389 965.034 339.304C972.893 337.219 971.74 332.875 979.598 330.79C987.457 328.705 988.609 333.048 996.466 330.963C1004.32 328.878 1003.17 324.534 1011.03 322.449C1018.89 320.364 1020.04 324.707 1027.9 322.622Z" fill="white"/>
</mask>
<g mask="url(#mask19_24_87)">
<path d="M933.606 347.644L1027.9 322.621L1023.29 305.248L928.996 330.27L933.606 347.644Z" fill="#CCE6E3"/>
</g>
</g>
</g>
</g>
</g>
</svg>
