<svg width="138" height="68" viewBox="0 0 138 68" fill="none" xmlns="http://www.w3.org/2000/svg">
<path d="M137.022 47.7854C137.022 74.1766 133.401 66.1893 68.5111 66.1893C0 66.1893 0 74.1766 0 47.7854C0 21.3943 30.6735 0 68.5111 0C106.349 0 137.022 21.3943 137.022 47.7854Z" fill="#EFEFEF"/>
<path d="M123.139 50.9559C123.139 71.9658 120.252 65.6072 68.5116 65.6072C13.8838 65.6072 13.8838 71.9658 13.8838 50.9559C13.8838 29.946 38.3415 12.9141 68.5116 12.9141C98.6817 12.9141 123.139 29.946 123.139 50.9559Z" fill="white"/>
<line y1="-1.43714" x2="16.7486" y2="-1.43714" transform="matrix(0.468522 -0.883452 0.854865 0.51885 95.3721 58.0615)" stroke="#C1BCBC" stroke-width="2.87428"/>
<line y1="-1.43714" x2="16.7486" y2="-1.43714" transform="matrix(-0.468522 -0.883452 -0.854865 0.51885 42.2529 58.0615)" stroke="#C1BCBC" stroke-width="2.87428"/>
<path opacity="0.6" d="M65.0372 57.3003C65.0995 58.9313 65.8065 60.3865 67.135 61.3235C68.4559 62.2618 70.2896 62.6051 72.1008 62.3001C73.9119 61.995 75.514 61.0732 76.4224 59.7594C77.3385 58.4444 77.4862 56.8453 76.9651 55.2915C76.9651 55.2915 76.9651 55.2915 76.9651 55.2915C76.8229 54.8647 76.6807 54.4379 76.5385 54.0111C73.9788 46.3285 71.4191 38.6459 68.8594 30.9633C68.7172 30.5365 68.575 30.1097 68.4328 29.6829C68.2634 29.1776 67.8715 28.7317 67.3862 28.436C66.8985 28.1407 66.3573 28.0198 65.8388 28.1071C65.3202 28.1944 64.8544 28.4849 64.5007 28.9219C64.1496 29.3585 63.9396 29.9058 63.9598 30.4362C63.9598 30.4362 63.9598 30.4362 63.9598 30.4362C63.9778 30.8839 63.9957 31.3316 64.0137 31.7794C64.3369 39.8386 64.6601 47.8978 64.9833 55.957C65.0013 56.4048 65.0192 56.8525 65.0372 57.3003Z" fill="#F87272"/>
<path d="M14.7646 61.7197H119.657" stroke="#C1BCBC" stroke-width="1.91875"/>
</svg>
