<svg width="14" height="35" viewBox="0 0 14 35" fill="none" xmlns="http://www.w3.org/2000/svg">
<path opacity="0.6" d="M1.0792 29.2212C1.14144 30.8522 1.8485 32.3074 3.17701 33.2444C4.49785 34.1827 6.33163 34.526 8.14276 34.221C9.95388 33.9159 11.556 32.9941 12.4644 31.6803C13.3805 30.3653 13.5281 28.7662 13.0071 27.2124C13.0071 27.2124 13.0071 27.2124 13.0071 27.2124C12.8649 26.7856 12.7227 26.3588 12.5805 25.932C10.0208 18.2494 7.46112 10.5669 4.90142 2.88431C4.75921 2.4575 4.61701 2.03069 4.4748 1.60388C4.30538 1.09862 3.91345 0.652701 3.42822 0.356971C2.94049 0.0616638 2.39931 -0.0592447 1.88075 0.0280853C1.36218 0.115413 0.896349 0.405911 0.542734 0.842907C0.191616 1.27948 -0.0184182 1.82678 0.00182358 2.35716C0.00182358 2.35716 0.00182358 2.35716 0.00182358 2.35716C0.0197803 2.8049 0.037736 3.25262 0.0556921 3.70036C0.378904 11.7596 0.702115 19.8188 1.02533 27.878C1.04328 28.3257 1.06124 28.7734 1.0792 29.2212Z" fill="#F87272"/>
</svg>
